<?xml version="1.0" encoding="UTF-8"?>
<svg width="261.65" height="168.75" version="1.1" viewBox="0 0 261.648 168.754" xmlns="http://www.w3.org/2000/svg">
 <g transform="translate(0 -883.61)">
  <path transform="translate(0 883.61)" d="m62.174 0c-42.658 0-94.647 168.75-35.775 168.75 22.059 0 43.068-35.831 54.205-48.061h100.44c11.137 12.23 32.144 48.061 54.203 48.061 58.871 0 6.8828-168.75-35.775-168.75h-31.438c-6.0604 0-14.204 10.842-19.512 10.842h-35.398c-5.3074 0-13.453-10.842-19.514-10.842h-31.438zm132.17 25.631a6.7054 6.7054 0 0 1 6.7051 6.7051 6.7054 6.7054 0 0 1 -6.7051 6.707 6.7054 6.7054 0 0 1 -6.707 -6.707 6.7054 6.7054 0 0 1 6.707 -6.7051zm-135.45 2.9727h9.7109v14.566h14.562v9.709h-14.562v14.564h-9.7109v-14.564h-14.564v-9.709h14.564v-14.566zm119.09 13.385a6.7054 6.7054 0 0 1 6.707 6.7051 6.7054 6.7054 0 0 1 -6.707 6.707 6.7054 6.7054 0 0 1 -6.7051 -6.707 6.7054 6.7054 0 0 1 6.7051 -6.7051zm32.988 0a6.7054 6.7054 0 0 1 6.7051 6.7051 6.7054 6.7054 0 0 1 -6.7051 6.707 6.7054 6.7054 0 0 1 -6.707 -6.707 6.7054 6.7054 0 0 1 6.707 -6.7051zm-16.359 16.629a6.7054 6.7054 0 0 1 6.707 6.7051 6.7054 6.7054 0 0 1 -6.707 6.707 6.7054 6.7054 0 0 1 -6.7051 -6.707 6.7054 6.7054 0 0 1 6.7051 -6.7051zm-92.055 26.664a13.37 13.37 0 0 1 13.371 13.369 13.37 13.37 0 0 1 -13.371 13.371 13.37 13.37 0 0 1 -13.371 -13.371 13.37 13.37 0 0 1 13.371 -13.369zm56.531 0a13.37 13.37 0 0 1 13.369 13.369 13.37 13.37 0 0 1 -13.369 13.371 13.37 13.37 0 0 1 -13.371 -13.371 13.37 13.37 0 0 1 13.371 -13.369z" fill="#404040" fill-rule="evenodd"/>
 </g>
</svg>
